<svg width="512" height="512" viewBox="0 0 512 512" fill="none" xmlns="http://www.w3.org/2000/svg">
<rect width="512" height="512" fill="#333333"/>
<path d="M479.617 256.067C479.617 226.464 442.545 198.409 385.707 181.011C398.823 123.08 392.994 76.9904 367.307 62.2344C361.387 58.7731 354.464 57.1336 346.904 57.1336V77.4459C351.094 77.4459 354.464 78.2657 357.288 79.8141C369.675 86.9189 375.05 113.972 370.86 148.767C369.858 157.329 368.218 166.346 366.214 175.546C348.361 171.174 328.869 167.804 308.374 165.618C296.077 148.767 283.325 133.464 270.482 120.074C300.176 92.4752 328.049 77.3548 346.995 77.3548V57.0425C321.946 57.0425 289.155 74.8955 255.999 105.865C222.844 75.0776 190.053 57.4068 165.004 57.4068V77.7191C183.859 77.7191 211.822 92.7484 241.517 120.165C228.764 133.555 216.012 148.767 203.898 165.618C183.312 167.804 163.82 171.174 145.967 175.637C143.872 166.529 142.323 157.693 141.23 149.222C136.949 114.427 142.232 87.3743 154.529 80.1785C157.261 78.5389 160.814 77.8102 165.004 77.8102V57.4979C157.353 57.4979 150.43 59.1375 144.418 62.5988C118.823 77.3548 113.084 123.354 126.292 181.102C69.6362 198.591 32.7461 226.555 32.7461 256.067C32.7461 285.67 69.8183 313.725 126.656 331.122C113.54 389.053 119.369 435.143 145.056 449.899C150.977 453.36 157.899 455 165.55 455C190.599 455 223.39 437.147 256.546 406.177C289.701 436.965 322.493 454.635 347.541 454.635C355.193 454.635 362.115 452.996 368.127 449.535C393.722 434.779 399.461 388.78 386.253 331.031C442.727 313.633 479.617 285.579 479.617 256.067V256.067ZM361.022 195.312C357.652 207.062 353.462 219.177 348.726 231.291C344.991 224.004 341.074 216.717 336.793 209.43C332.603 202.143 328.14 195.039 323.677 188.116C336.611 190.029 349.09 192.397 361.022 195.312ZM319.305 292.319C312.2 304.616 304.913 316.275 297.353 327.114C283.781 328.298 270.027 328.936 256.182 328.936C242.427 328.936 228.673 328.298 215.193 327.205C207.632 316.366 200.254 304.798 193.15 292.592C186.227 280.66 179.942 268.546 174.204 256.34C179.851 244.134 186.227 231.929 193.059 219.996C200.163 207.7 207.45 196.041 215.01 185.201C228.582 184.017 242.336 183.38 256.182 183.38C269.936 183.38 283.69 184.017 297.171 185.11C304.731 195.95 312.109 207.518 319.213 219.723C326.136 231.656 332.421 243.77 338.159 255.976C332.421 268.181 326.136 280.387 319.305 292.319ZM348.726 280.478C353.644 292.684 357.834 304.889 361.296 316.73C349.363 319.645 336.793 322.104 323.768 324.017C328.231 317.004 332.694 309.808 336.884 302.43C341.074 295.143 344.991 287.765 348.726 280.478ZM256.364 377.667C247.893 368.923 239.422 359.177 231.042 348.52C239.239 348.884 247.619 349.157 256.09 349.157C264.653 349.157 273.124 348.975 281.413 348.52C273.215 359.177 264.744 368.923 256.364 377.667ZM188.595 324.017C175.661 322.104 163.182 319.736 151.25 316.821C154.62 305.071 158.81 292.957 163.546 280.842C167.281 288.129 171.198 295.416 175.479 302.703C179.76 309.99 184.132 317.095 188.595 324.017ZM255.908 134.466C264.379 143.21 272.85 152.957 281.23 163.614C273.033 163.249 264.653 162.976 256.182 162.976C247.619 162.976 239.148 163.158 230.859 163.614C239.057 152.957 247.528 143.21 255.908 134.466ZM188.504 188.116C184.041 195.13 179.578 202.326 175.388 209.704C171.198 216.991 167.281 224.277 163.546 231.564C158.628 219.359 154.438 207.153 150.977 195.312C162.909 192.488 175.479 190.029 188.504 188.116ZM106.071 302.157C73.8262 288.402 52.9673 270.367 52.9673 256.067C52.9673 241.766 73.8262 223.64 106.071 209.977C113.904 206.607 122.466 203.601 131.302 200.777C136.494 218.63 143.325 237.212 151.796 256.249C143.416 275.195 136.676 293.685 131.575 311.447C122.558 308.624 113.995 305.527 106.071 302.157ZM155.075 432.319C142.688 425.215 137.314 398.162 141.504 363.367C142.505 354.805 144.145 345.787 146.149 336.587C164.002 340.959 183.494 344.33 203.989 346.516C216.286 363.367 229.038 378.669 241.881 392.059C212.187 419.658 184.314 434.779 165.368 434.779C161.269 434.688 157.808 433.868 155.075 432.319V432.319ZM371.133 362.911C375.414 397.706 370.131 424.759 357.834 431.955C355.102 433.594 351.549 434.323 347.359 434.323C328.504 434.323 300.541 419.294 270.847 391.877C283.599 378.487 296.351 363.276 308.465 346.425C329.051 344.239 348.543 340.868 366.396 336.405C368.491 345.605 370.131 354.44 371.133 362.911V362.911ZM406.201 302.157C398.368 305.527 389.806 308.533 380.97 311.356C375.778 293.503 368.947 274.922 360.476 255.885C368.856 236.939 375.596 218.448 380.697 200.686C389.715 203.51 398.277 206.607 406.292 209.977C438.537 223.731 459.396 241.766 459.396 256.067C459.305 270.367 438.446 288.494 406.201 302.157V302.157Z" fill="#61DAFB"/>
<path d="M256.091 297.693C279.081 297.693 297.718 279.056 297.718 256.067C297.718 233.077 279.081 214.44 256.091 214.44C233.102 214.44 214.465 233.077 214.465 256.067C214.465 279.056 233.102 297.693 256.091 297.693Z" fill="#61DAFB"/>
</svg>
